<svg xmlns="http://www.w3.org/2000/svg" width="600" height="540" viewBox="0 0 600 540"><rect width="600" height="540" fill="#e8eddf"/><circle cx="310" cy="230" r="188" fill="#d6dfc8"/><path d="M345 86h125v180H345z" fill="#f7f7e9"/><path d="M407 86v180M345 176h125" stroke="#b6c6a5" stroke-width="7"/><circle cx="438" cy="120" r="18" fill="#e7c985"/><path d="m348 244 40-40 30 25 49-37v72H348" fill="#b7cba0"/><ellipse cx="303" cy="444" rx="236" ry="25" fill="#bdcbb0"/><path d="M77 390h454v15H77z" fill="#a78360"/><path d="M106 405v86m393-86v86" stroke="#647357" stroke-width="14"/><rect x="133" y="188" width="285" height="185" rx="12" fill="#344d3f"/><rect x="145" y="200" width="261" height="157" rx="5" fill="#22382f"/><circle cx="159" cy="214" r="3" fill="#dba477"/><circle cx="170" cy="214" r="3" fill="#e2cb8c"/><circle cx="181" cy="214" r="3" fill="#9db87d"/><path d="M167 243h55m-40 17h100m-100 17h74m-89 17h40m-25 17h115m-130 17h48" stroke="#a8c58a" stroke-width="6" stroke-linecap="round"/><path d="M239 243h55m-24 34h64m-106 17h52" stroke="#d8b67a" stroke-width="6" stroke-linecap="round"/><path d="M273 373v17m-35 0h72" stroke="#344d3f" stroke-width="12"/><path d="M169 414h182l22 17H152z" fill="#71866a"/><rect x="439" y="343" width="41" height="46" rx="7" fill="#f7f5e8"/><path d="M480 353c29-5 24 28 0 24" fill="none" stroke="#f7f5e8" stroke-width="8"/><path d="M459 332q-14-15 0-29" fill="none" stroke="#a7b397" stroke-width="3"/><path d="M82 350h42l-8 40H90z" fill="#bd815a"/><path d="M103 351v-58" stroke="#5d7951" stroke-width="4"/><path d="M103 326q-39-2-34-31 32-1 34 31m0-14q-2-33 26-41 17 28-26 41" fill="#78945f"/></svg>
